PathFileType	4	(X/Y/Z)	E:\3-PhD\Data\MocapData\ElaboratedData\009\pre\dynamicElaborations\RunA3\RunA3.trc
DataRate	CameraRate	NumFrames	NumMarkers	Units	OrigDataRate	DataStartFrame
200	200	4	54	mm	200	570
Frame#	Time	FHD			LBHD			RBHD			C7			T10			CLAV			LSHO			LUUPA			LMUPA			LDUPA			LLEP			LMEP			LRAD			LUL			LRFIN			RSHO			RUPA1			RMUPA			RDUPA			RLEP			RMEP			RRAD			RUL			RUFIN			RASI			USACR			LSACR			RSACR			LTHI1			LTHI2			LTHI3			LTHI4			LTIB1			LTIB2			LTIB3			LTIB4			LLMAL			LHEE			LMT1			LMT2			RTHI			RTHI2			RTHI3			RTHI4			RLFC			RTIB1			RTIB2			RTIB3			RTIB4			RLMAL			RHEE			RMT1			RMT2			RMT5		
		X1	Y1	Z1	X2	Y2	Z2	X3	Y3	Z3	X4	Y4	Z4	X5	Y5	Z5	X6	Y6	Z6	X7	Y7	Z7	X8	Y8	Z8	X9	Y9	Z9	X10	Y10	Z10	X11	Y11	Z11	X12	Y12	Z12	X13	Y13	Z13	X14	Y14	Z14	X15	Y15	Z15	X16	Y16	Z16	X17	Y17	Z17	X18	Y18	Z18	X19	Y19	Z19	X20	Y20	Z20	X21	Y21	Z21	X22	Y22	Z22	X23	Y23	Z23	X24	Y24	Z24	X25	Y25	Z25	X26	Y26	Z26	X27	Y27	Z27	X28	Y28	Z28	X29	Y29	Z29	X30	Y30	Z30	X31	Y31	Z31	X32	Y32	Z32	X33	Y33	Z33	X34	Y34	Z34	X35	Y35	Z35	X36	Y36	Z36	X37	Y37	Z37	X38	Y38	Z38	X39	Y39	Z39	X40	Y40	Z40	X41	Y41	Z41	X42	Y42	Z42	X43	Y43	Z43	X44	Y44	Z44	X45	Y45	Z45	X46	Y46	Z46	X47	Y47	Z47	X48	Y48	Z48	X49	Y49	Z49	X50	Y50	Z50	X51	Y51	Z51	X52	Y52	Z52	X53	Y53	Z53	X54	Y54	Z54	

596	2.975000	-286.656382	1362.863083	745.426801	-393.270323	1378.518258	581.521547	-426.605222	1356.515943	703.365642	-479.652555	1264.550162	628.787965	-722.423695	1006.190256	643.709626	-415.191055	1112.643880	644.517734	-384.192688	1192.798654	522.689497	-328.572277	1048.385633	422.484829	-288.586586	1040.545070	446.742783	-288.917823	992.102136	411.076729	-221.744675	888.954057	409.515883	-244.221185	846.091635	464.071122	-117.978112	1035.774960	589.343687	-54.181204	1002.130166	569.107376	-87.011950	1099.735555	575.640356	-435.913573	1182.459251	806.721993	-597.104833	1137.630799	893.076870	-614.954732	1092.972157	883.529101	-660.927004	1121.508319	911.758827	-790.046250	1083.317125	929.646611	-816.678481	1110.076264	869.805897	-889.998822	848.443400	870.465238	-943.036683	873.632408	911.172834	-895.077148	782.114433	913.400576	-598.937909	773.225115	708.349650	-770.537536	901.952849	632.289607	-776.833508	880.209521	597.110731	-776.974244	863.322227	653.587603	-593.152668	667.478655	327.106788	-537.132227	610.289757	300.394914	-492.959405	617.915067	319.065586	-547.300808	552.747968	281.643826	-529.403735	281.328978	203.026036	-595.751401	300.554972	148.736202	-569.320525	269.355181	163.388204	-618.717622	198.819636	161.688956	-742.224545	125.605615	92.389093	-837.974180	95.135393	103.873724	-626.802623	49.901714	153.159975	-615.752472	55.429490	105.943885	-546.438732	599.333856	784.278439	-485.692429	600.796614	807.281434	-468.461494	631.096460	812.279283	-424.248580	542.783903	789.485902	-328.036307	502.351783	779.171499	-255.574019	353.993266	644.294980	-335.209231	289.283369	602.322622	-286.025951	286.640824	599.805249	-263.228912	266.976439	552.310252	-328.328818	189.261005	500.660889	-359.181652	181.269795	406.296040	-157.386186	169.582760	509.656099	-178.422987	150.537275	537.469679	-235.671253	108.981156	545.787497	
597	2.980000	-265.310364	1366.831908	757.806933	-370.579618	1381.497974	593.022776	-404.699214	1360.129874	714.585002	-456.965214	1267.154400	639.710197	-698.939911	1008.195508	651.631440	-392.415253	1115.505181	657.295230	-360.434361	1195.809070	535.963127	-302.697193	1052.390901	436.154089	-262.798546	1044.825491	460.905094	-262.332016	996.524346	424.958800	-194.362677	894.098501	423.191771	-216.907500	850.834373	477.826548	-94.807072	1042.337392	604.494952	-30.191061	1009.959053	584.719826	-65.284178	1106.717523	590.826224	-416.366729	1186.716659	818.912262	-579.446595	1144.985652	902.406741	-597.290893	1100.174482	893.656802	-643.756402	1129.780008	919.973621	-773.716995	1092.014077	935.440689	-798.731416	1118.224255	874.957743	-868.772008	855.835091	873.221421	-922.994305	880.169905	912.754551	-873.909032	789.294932	915.657038	-576.511663	775.246465	715.835638	-746.956681	904.376676	639.424303	-753.117643	882.826732	604.092587	-753.755190	865.643602	660.502863	-575.990417	668.330275	333.071944	-522.472625	609.343036	305.197248	-477.807409	615.488531	323.172362	-534.845437	552.271169	286.490806	-523.913450	280.781091	205.520507	-590.117825	301.513594	151.564730	-564.167157	269.797595	165.856237	-614.717827	200.043756	163.874375	-739.799846	129.626636	94.231327	-835.929924	101.486187	105.908461	-625.991518	49.411128	153.474624	-615.314591	55.438198	106.204377	-524.322177	602.104244	791.820236	-463.448070	603.865717	814.516453	-446.253094	634.211520	819.143698	-402.021958	545.761450	796.711738	-305.494630	505.037655	786.284357	-223.381014	355.357513	656.370188	-298.599751	286.655932	613.441107	-249.597587	285.980691	612.738206	-224.585626	266.275025	566.352372	-284.549886	184.777991	514.372553	-312.360463	174.041744	419.408419	-113.315475	171.597036	528.648694	-134.530164	152.213515	556.098049	-190.334745	108.613322	563.358411	
598	2.985000	-244.017906	1371.320878	770.623535	-347.937324	1384.875811	604.979074	-382.838393	1364.257302	726.267344	-434.370405	1270.130695	651.129610	-675.277565	1010.399245	659.711012	-369.632084	1118.776418	670.486742	-336.882248	1199.214676	549.398871	-277.685555	1056.688151	449.633617	-237.791575	1049.354270	474.720367	-236.708965	1001.199241	438.511675	-168.056595	899.456466	436.345623	-190.629414	855.709121	491.028052	-72.109305	1048.564038	619.122149	-6.801233	1017.371931	599.657352	-43.965449	1113.299995	605.480318	-396.834378	1191.344332	831.515416	-561.720820	1152.541261	911.880416	-579.560567	1107.608348	903.824823	-626.491986	1138.163123	928.170733	-757.266498	1100.807108	941.078275	-780.548115	1126.369098	879.891177	-846.913724	863.124153	876.250765	-902.409279	886.641777	914.358078	-852.173500	796.509425	918.395770	-554.012150	777.479808	723.545180	-723.105434	907.052720	646.578810	-729.068968	885.694231	611.084785	-730.312768	868.203987	667.415382	-558.341086	669.631882	339.466747	-507.479689	608.824870	310.583505	-462.441548	613.359971	327.985128	-522.118881	552.349058	291.874807	-518.364925	280.799614	208.557891	-584.228939	302.988429	154.740724	-558.792126	270.775017	168.746270	-610.406662	201.787859	166.290099	-736.821298	134.097696	95.990376	-833.269490	108.526255	107.701667	-625.164852	48.861474	153.748505	-614.791741	55.475141	106.493052	-502.238068	604.754634	799.459625	-441.233244	606.666092	821.850046	-424.004667	637.012598	826.119467	-379.959684	548.334759	804.014016	-283.179377	507.141459	793.445553	-191.766818	356.598990	668.606388	-262.439309	284.174755	624.949731	-213.753547	285.481551	626.038766	-186.620824	265.802979	580.783792	-241.465788	180.925193	528.746498	-266.224242	167.636483	433.272468	-70.232247	174.045144	547.840142	-91.592277	154.317265	574.962094	-145.912113	108.792319	581.305409	
599	2.990000	-222.777741	1376.254986	783.856986	-325.375049	1388.609458	617.393507	-361.042658	1368.826451	738.423729	-411.880741	1273.439368	663.026131	-651.452423	1012.763304	667.929291	-346.858146	1122.430364	684.085576	-313.463952	1202.973105	562.998520	-253.439242	1061.218475	462.889268	-213.475384	1054.054000	488.156883	-211.984440	1006.047171	451.707211	-142.800539	904.914297	448.948427	-165.380385	860.626422	503.656247	-49.829524	1054.373848	633.198508	16.046109	1024.252302	613.913645	-22.963198	1119.397223	619.569746	-377.316364	1196.258210	844.496603	-543.912583	1160.219115	921.480357	-561.752056	1115.199047	914.023802	-609.119349	1146.593591	936.328780	-740.688917	1109.634634	946.554699	-762.091538	1134.427405	884.578358	-824.467520	870.268925	879.586424	-881.303778	893.013587	916.012962	-829.936032	803.715273	921.647025	-531.420841	779.910103	731.481259	-699.001764	909.950165	653.755308	-704.694240	888.774302	618.092771	-706.653814	870.970898	674.325346	-540.100001	671.420226	346.315641	-492.032718	608.788624	316.605007	-446.773272	611.577308	333.619086	-508.982725	553.058066	297.794577	-512.696997	281.431089	212.148477	-578.028584	305.010406	158.267894	-553.134931	272.321639	172.072692	-605.713172	204.079223	168.950725	-733.202040	139.010805	97.687799	-829.883165	116.253753	109.292932	-624.329760	48.233819	153.970970	-614.171996	55.538880	106.805263	-480.165271	607.239388	807.187061	-419.033779	609.155453	829.291442	-401.706904	639.461816	833.226925	-358.027523	550.482631	811.396866	-261.024890	508.678427	800.680912	-160.737326	357.699618	680.976513	-226.793543	281.825629	636.824350	-178.566096	285.100287	639.648813	-149.408174	265.533379	595.545022	-199.190762	177.639162	543.697202	-220.961738	161.997114	447.831881	-28.223071	176.833258	567.146733	-49.679612	156.758758	593.976476	-102.493949	109.436795	599.558313	
